<?xml version="1.0" standalone="no"?><svg xmlns="http://www.w3.org/2000/svg" viewBox="0 0 1440 320"><path fill="#F5BFD2" fill-opacity="1" d="M0,128L30,149.3C60,171,120,213,180,202.7C240,192,300,128,360,101.3C420,75,480,85,540,112C600,139,660,181,720,181.3C780,181,840,139,900,149.3C960,160,1020,224,1080,218.7C1140,213,1200,139,1260,117.3C1320,96,1380,128,1410,144L1440,160L1440,0L1410,0C1380,0,1320,0,1260,0C1200,0,1140,0,1080,0C1020,0,960,0,900,0C840,0,780,0,720,0C660,0,600,0,540,0C480,0,420,0,360,0C300,0,240,0,180,0C120,0,60,0,30,0L0,0Z"></path></svg>